<svg width="28" height="34" viewBox="0 0 28 34" fill="none" xmlns="http://www.w3.org/2000/svg">
<path fill-rule="evenodd" clip-rule="evenodd" d="M15.7438 15.9042C15.452 16.4877 15.274 17.3966 15.5044 18.7366C15.6176 19.395 15.1771 20.0208 14.5206 20.1344C13.8639 20.2479 13.2399 19.8062 13.1266 19.1478C12.8305 17.4253 13.0123 15.9683 13.5871 14.8193C14.1654 13.6633 15.1008 12.905 16.1362 12.5404C18.0973 11.8498 20.6731 12.5786 21.4301 14.8897C22.2324 17.3392 22.0291 20.4194 20.8432 22.8763C19.633 25.3834 17.3078 27.3796 13.899 27.1938C10.5588 27.0117 8.34658 24.9741 7.31891 22.4641C6.31285 20.0068 6.40182 17.0263 7.63244 14.7003C7.94473 14.1101 8.67503 13.8854 9.26362 14.1986C9.85222 14.5117 10.0762 15.244 9.76395 15.8343C8.88823 17.4894 8.80168 19.715 9.55099 21.5452C10.2787 23.3226 11.7528 24.6537 14.0299 24.7778C16.2384 24.8982 17.7751 23.6789 18.6714 21.8221C19.5919 19.9149 19.7397 17.4827 19.1377 15.6448C18.9111 14.953 17.9761 14.4569 16.9357 14.8232C16.4702 14.9871 16.0322 15.3277 15.7438 15.9042Z" fill="#636AE8"/>
<path fill-rule="evenodd" clip-rule="evenodd" d="M18.8119 8.66203C16.6416 8.60742 14.4762 9.44805 13.1098 10.8643C12.6465 11.3445 11.8827 11.3573 11.4038 10.8927C10.925 10.4281 10.9123 9.66223 11.3756 9.18204C13.2602 7.22863 16.1013 6.1735 18.8724 6.24324C21.6704 6.31364 24.516 7.53917 26.2642 10.2925C27.7423 12.6207 28.2696 16.5517 27.7039 20.3494C27.1335 24.1796 25.401 28.2202 21.9626 30.6216C21.4158 31.0035 20.6639 30.8686 20.2831 30.3203C19.9023 29.7721 20.0368 29.018 20.5836 28.6362C23.2859 26.7489 24.8044 23.4373 25.3175 19.992C25.8356 16.5141 25.2791 13.2462 24.2288 11.592C22.9862 9.6348 20.9553 8.71595 18.8119 8.66203Z" fill="#E8618C"/>
<path fill-rule="evenodd" clip-rule="evenodd" d="M13.1629 3.11616C13.445 3.72144 13.1844 4.44144 12.5808 4.72438C8.17965 6.78713 5.52597 9.6081 4.13964 12.5801C2.74871 15.5619 2.5939 18.7798 3.33608 21.6952C4.84812 27.6346 9.8684 31.8829 15.2536 30.8121C15.9072 30.6821 16.5421 31.1081 16.6717 31.7635C16.8013 32.4189 16.3765 33.0555 15.7229 33.1854C8.64152 34.5935 2.70333 28.9915 0.998176 22.2936C0.131764 18.8903 0.303718 15.0928 1.95405 11.5549C3.60889 8.00734 6.71095 4.8047 11.5591 2.53243C12.1628 2.24952 12.8808 2.51086 13.1629 3.11616Z" fill="#22CCB2"/>
<path d="M18.2766 2.04104C18.2766 2.82054 17.6464 3.45245 16.8691 3.45245C16.0917 3.45245 15.4615 2.82054 15.4615 2.04104C15.4615 1.26154 16.0917 0.629639 16.8691 0.629639C17.6464 0.629639 18.2766 1.26154 18.2766 2.04104Z" fill="#7F55E0"/>
<path d="M23.4978 2.25182C23.4978 3.14266 22.7776 3.86484 21.8892 3.86484C21.0008 3.86484 20.2806 3.14266 20.2806 2.25182C20.2806 1.36097 21.0008 0.638794 21.8892 0.638794C22.7776 0.638794 23.4978 1.36097 23.4978 2.25182Z" fill="#7F55E0"/>
</svg>
